<?xml version="1.0" standalone="no"?>
<!DOCTYPE svg PUBLIC "-//W3C//DTD SVG 20010904//EN"
 "http://www.w3.org/TR/2001/REC-SVG-20010904/DTD/svg10.dtd">
<svg version="1.0" xmlns="http://www.w3.org/2000/svg"
 width="225.000000pt" height="225.000000pt" viewBox="0 0 225.000000 225.000000"
 preserveAspectRatio="xMidYMid meet">
<metadata>
Created by potrace 1.10, written by Peter Selinger 2001-2011
</metadata>
<g transform="translate(0.000000,225.000000) scale(0.100000,-0.100000)"
fill="#000000" stroke="none">
<path d="M1130 1946 c-3 -3 -75 -6 -160 -7 -85 -1 -175 -5 -200 -8 -25 -4 79
-5 230 -3 161 3 334 0 419 -7 79 -6 146 -10 148 -7 8 7 -160 25 -297 32 -74 3
-137 3 -140 0z"/>
<path d="M865 1901 c-77 -5 -165 -12 -195 -16 l-55 -9 49 -6 c27 -3 70 -1 95
5 55 13 706 11 792 -2 31 -5 65 -6 75 -2 16 7 15 8 -6 8 -14 0 -59 4 -100 10
-105 14 -488 21 -655 12z"/>
<path d="M1648 1888 c17 -6 32 -17 32 -24 0 -14 -57 -23 -215 -35 -105 -7
-103 -7 35 -3 167 4 220 12 220 29 0 13 -70 46 -93 44 -6 -1 3 -6 21 -11z"/>
<path d="M554 1876 c-10 -8 -16 -18 -12 -22 12 -12 98 -23 173 -22 l70 1 -73
7 c-41 5 -89 11 -108 15 -34 6 -44 19 -21 28 6 3 7 6 1 6 -5 1 -19 -5 -30 -13z"/>
<path d="M980 1840 c-24 -5 0 -8 74 -9 60 0 107 1 105 3 -9 8 -147 13 -179 6z"/>
<path d="M1706 1819 c-5 -17 -36 -420 -36 -466 0 -50 -29 -60 -275 -98 l-90
-14 75 4 c41 3 93 5 115 6 22 0 70 8 107 16 77 17 71 1 88 213 6 69 15 174 20
234 9 100 7 141 -4 105z"/>
<path d="M550 1793 c0 -41 39 -462 45 -494 5 -23 13 -27 71 -38 36 -6 69 -9
75 -5 14 8 -22 33 -38 27 -8 -3 -33 2 -57 11 l-43 17 -6 72 c-27 334 -47 508
-47 410z"/>
<path d="M672 1796 c56 -11 753 -11 838 0 44 6 -90 9 -408 9 -302 0 -458 -3
-430 -9z"/>
<path d="M672 1323 c-6 -2 -10 -9 -6 -14 8 -14 56 -10 84 6 24 14 24 14 -20
14 -25 0 -51 -3 -58 -6z"/>
<path d="M772 1312 c-18 -8 -31 -20 -29 -25 1 -5 44 -11 94 -13 49 -1 108 -8
130 -14 27 -8 90 -11 194 -7 158 5 210 10 251 26 13 5 40 7 60 5 50 -6 57 12
12 31 -45 19 -68 19 -35 1 l25 -14 -30 0 c-16 -1 -51 -5 -79 -11 -27 -5 -93
-11 -145 -12 l-95 -3 80 -6 c68 -5 58 -6 -60 -7 -81 0 -119 3 -90 6 42 5 33 7
-57 12 -59 3 -113 11 -121 17 -8 7 -17 8 -23 3 -5 -5 -24 -7 -42 -4 -30 5 -31
7 -15 19 24 18 16 16 -25 -4z"/>
<path d="M1508 1319 c37 -14 82 -20 82 -10 0 13 -27 21 -68 20 -33 0 -35 -1
-14 -10z"/>
<path d="M776 1261 c-28 -11 -9 -18 49 -19 28 -1 86 -3 130 -5 44 -2 61 -2 38
0 -24 2 -43 7 -43 11 0 4 -19 8 -42 8 -24 0 -59 3 -78 6 -19 4 -44 4 -54 -1z"/>
<path d="M1660 1255 c-1 -11 -4 -33 -6 -50 -2 -16 -6 -40 -9 -52 -3 -13 -1
-23 4 -23 11 0 25 99 18 126 -4 18 -5 18 -7 -1z"/>
<path d="M605 1180 c10 -167 37 -405 48 -418 33 -41 143 -74 207 -62 l45 9
-50 -1 c-82 -1 -101 1 -87 10 8 6 3 9 -16 9 -32 0 -94 41 -85 56 3 6 1 7 -5 3
-7 -4 -12 -2 -12 4 0 8 10 10 28 6 l27 -6 -28 25 c-23 20 -29 36 -36 97 -5 40
-10 114 -10 163 -1 50 -8 113 -16 140 l-15 50 5 -85z"/>
<path d="M1631 923 c-1 -41 -14 -72 -40 -100 l-22 -23 30 0 c29 0 30 1 36 64
4 36 5 70 2 78 -3 7 -6 -1 -6 -19z"/>
<path d="M1595 772 c-17 -9 -34 -23 -38 -30 -6 -9 -20 -11 -40 -8 -22 4 -26 3
-13 -2 19 -8 19 -9 -3 -15 -12 -3 -39 -4 -59 -1 l-37 4 36 -11 c29 -8 45 -6
90 11 55 21 108 55 99 64 -3 2 -19 -3 -35 -12z"/>
<path d="M697 765 c26 -18 81 -26 293 -40 52 -3 109 -2 125 3 23 7 -3 11 -110
16 -229 11 -249 13 -278 25 -40 16 -55 14 -30 -4z"/>
<path d="M1540 773 c0 -5 -6 -10 -12 -10 -7 -1 -89 -5 -183 -9 -133 -6 -159
-10 -121 -15 28 -5 52 -6 56 -4 3 2 63 5 133 7 97 2 128 6 132 17 3 8 3 16 0
19 -3 3 -5 1 -5 -5z"/>
<path d="M1620 738 c0 -7 -11 -25 -24 -39 -26 -30 -56 -36 -231 -44 -60 -3
-139 -7 -175 -9 -38 -3 -52 -2 -35 2 17 4 -46 6 -139 4 -175 -5 -298 8 -346
35 -15 9 -17 12 -6 8 20 -6 20 -6 1 17 -11 13 -22 25 -24 28 -7 9 11 -95 19
-111 19 -35 163 -88 241 -89 19 0 39 -4 45 -9 5 -5 18 -5 29 -1 15 5 5 9 -35
14 -116 15 -210 40 -210 57 0 5 17 9 38 9 27 0 33 3 22 10 -22 14 13 24 53 15
50 -12 547 -16 547 -5 0 5 10 9 23 9 12 -1 41 2 65 6 46 8 57 -6 25 -31 -17
-13 -17 -13 0 -14 10 0 15 -4 12 -10 -9 -15 1 -12 45 10 39 20 60 45 60 74 0
10 -6 14 -17 10 -10 -2 -8 1 5 7 13 7 22 21 22 36 0 23 -10 34 -10 11z"/>
<path d="M1395 559 c-49 -10 -96 -16 -102 -14 -7 2 -13 0 -13 -4 0 -5 13 -14
30 -19 22 -8 29 -8 27 1 -1 7 24 16 63 22 36 6 74 17 85 23 26 15 18 14 -90
-9z"/>
<path d="M1218 563 c-10 -2 -18 -9 -18 -14 0 -6 4 -7 10 -4 5 3 29 10 52 14
42 9 42 9 8 9 -19 0 -43 -2 -52 -5z"/>
<path d="M1535 524 l-70 -34 45 6 c25 3 54 7 65 8 35 3 60 15 73 36 11 18 10
20 -15 19 -16 0 -59 -16 -98 -35z"/>
<path d="M652 530 c-15 -25 -15 -36 1 -38 6 0 56 -3 109 -5 53 -3 106 -10 117
-16 24 -13 31 -14 31 -2 0 10 -38 21 -94 27 -21 2 -64 15 -94 29 -30 14 -55
25 -56 25 -1 0 -7 -9 -14 -20z"/>
</g>
</svg>
