<?xml version="1.0" standalone="no"?>
<!DOCTYPE svg PUBLIC "-//W3C//DTD SVG 20010904//EN"
 "http://www.w3.org/TR/2001/REC-SVG-20010904/DTD/svg10.dtd">
<svg version="1.0" xmlns="http://www.w3.org/2000/svg"
 width="300.000000pt" height="224.000000pt" viewBox="0 0 300.000000 224.000000"
 preserveAspectRatio="xMidYMid meet">
<metadata>
Created by potrace 1.10, written by Peter Selinger 2001-2011
</metadata>
<g transform="translate(0.000000,224.000000) scale(0.100000,-0.100000)"
fill="#000000" stroke="none">
<path d="M1956 1730 c-82 -48 -153 -95 -158 -104 -7 -13 -13 -14 -23 -6 -18
15 -43 7 -119 -38 -78 -46 -109 -64 -173 -98 -29 -15 -53 -31 -53 -36 0 -5 -4
-6 -10 -3 -5 3 -10 2 -10 -3 0 -4 -21 -19 -47 -32 -27 -13 -92 -50 -146 -82
-53 -32 -101 -58 -105 -58 -4 0 -24 -11 -44 -25 -20 -14 -56 -35 -80 -48 -24
-13 -60 -33 -81 -45 -21 -12 -69 -40 -106 -61 -38 -21 -85 -50 -106 -64 -21
-15 -42 -24 -47 -21 -4 3 -8 1 -8 -3 0 -5 -26 -22 -57 -38 -105 -54 -103 -49
-103 -256 l0 -180 32 -30 c18 -16 37 -29 42 -29 5 0 42 -20 82 -45 39 -25 75
-45 78 -45 4 0 18 -8 33 -17 29 -19 67 -28 59 -14 -3 5 -73 48 -156 96 l-150
86 0 184 c0 165 2 184 18 189 9 4 62 33 117 66 113 66 447 259 700 405 94 54
227 131 297 171 l127 74 103 -63 c57 -35 127 -76 156 -92 l52 -28 0 -159 c0
-155 1 -159 23 -169 19 -8 38 0 129 54 59 35 128 75 153 88 l45 24 0 182 0
181 -127 73 c-71 40 -141 80 -158 90 l-30 16 -149 -87z m179 40 c3 -6 -4 -10
-16 -10 -12 0 -36 -16 -55 -35 -21 -23 -42 -35 -59 -35 -57 0 -106 -84 -64
-111 8 -5 9 -9 3 -9 -6 0 -23 9 -37 20 -14 11 -30 20 -35 20 -25 0 -22 24 4
46 16 13 32 23 37 24 4 0 47 22 95 50 87 50 115 59 127 40z m82 -71 c54 -26
72 -55 49 -77 -31 -31 -117 -10 -173 41 -13 11 -23 26 -23 32 0 19 42 35 75
30 16 -3 49 -15 72 -26z m136 -49 c42 -16 46 -24 17 -42 -11 -7 -20 -16 -20
-19 0 -4 9 -5 20 -2 19 5 20 0 20 -146 l0 -151 -55 -35 c-30 -20 -63 -39 -73
-42 -9 -4 -37 -19 -61 -35 -25 -15 -51 -28 -58 -28 -10 0 -13 33 -13 149 l0
150 26 20 c31 25 25 27 -16 6 l-30 -16 0 -169 c0 -154 -7 -199 -24 -154 -3 9
-6 82 -6 163 0 173 11 155 -155 246 -37 20 -105 65 -105 70 0 8 35 -8 105 -50
106 -64 182 -101 166 -81 -8 10 -10 16 -5 14 13 -4 114 51 114 61 0 5 20 16
44 25 43 16 73 56 60 78 -4 6 -3 9 2 7 5 -2 26 -11 47 -19z m-289 -11 c17 -14
26 -30 26 -50 0 -34 1 -34 41 -13 17 8 38 13 47 9 12 -4 3 -13 -33 -35 -48
-27 -51 -28 -69 -10 -10 9 -21 33 -25 51 -5 27 -12 35 -34 37 -18 2 -29 -2
-33 -12 -3 -9 -15 -16 -25 -16 -22 0 -24 10 -6 32 26 33 74 36 111 7z m-44
-63 c0 -7 9 -25 21 -40 l21 -26 -26 10 c-37 14 -76 41 -76 52 0 5 4 7 9 3 5
-3 12 -1 16 5 9 15 35 12 35 -4z"/>
<path d="M2112 1688 c6 -18 79 -58 106 -58 34 0 23 21 -24 47 -43 25 -88 31
-82 11z"/>
<path d="M2277 1551 c-57 -34 -75 -50 -28 -26 51 26 97 55 86 54 -5 0 -31 -13
-58 -28z"/>
<path d="M1900 1335 c-247 -143 -778 -449 -927 -534 l-152 -86 0 -175 c0 -107
4 -167 9 -155 5 11 9 83 9 160 1 77 5 145 9 150 12 17 135 95 159 101 13 4 23
10 23 15 0 5 7 9 15 9 8 0 15 5 15 10 0 6 5 10 10 10 9 0 156 83 230 130 18
11 111 64 195 110 33 19 71 42 84 52 13 10 27 15 32 12 5 -3 9 -1 9 4 0 7 68
48 211 127 116 64 189 108 199 120 21 26 -1 15 -130 -60z"/>
<path d="M1273 1250 c-48 -19 -23 -63 57 -99 52 -24 99 -27 124 -8 31 23 11
53 -56 86 -64 32 -87 36 -125 21z m97 -40 c44 -22 57 -37 43 -51 -11 -11 -115
40 -121 59 -6 18 34 15 78 -8z"/>
<path d="M2448 1244 c5 -10 16 -18 25 -20 8 -1 40 -18 71 -38 31 -20 58 -36
61 -36 2 0 77 -43 165 -95 88 -52 165 -95 170 -95 6 0 10 -4 10 -9 0 -5 11
-11 25 -13 14 -3 25 -4 25 -2 0 1 -80 48 -177 105 -98 56 -214 123 -258 149
-122 72 -129 75 -117 54z"/>
<path d="M1150 1177 c-39 -20 -37 -44 7 -64 21 -10 43 -25 50 -34 29 -39 143
-23 143 21 0 17 -38 40 -65 40 -8 0 -25 11 -39 25 -28 28 -58 31 -96 12z m74
-32 c4 -11 -2 -15 -24 -15 -29 0 -45 12 -33 24 12 12 51 6 57 -9z m76 -40 c10
-12 7 -15 -14 -21 -29 -7 -46 1 -46 22 0 19 44 18 60 -1z"/>
<path d="M2145 1081 c6 -5 71 -44 145 -87 157 -90 187 -107 415 -239 94 -54
190 -109 215 -123 25 -13 49 -28 55 -33 12 -12 25 -11 25 0 0 5 -10 13 -22 17
-13 4 -25 10 -28 13 -3 4 -32 21 -65 38 -33 17 -98 54 -144 82 -46 28 -92 53
-102 56 -11 4 -19 11 -19 16 0 5 -6 9 -14 9 -8 0 -21 6 -28 13 -7 6 -36 24
-63 38 -28 14 -106 58 -173 98 -68 39 -128 71 -133 71 -5 0 -9 4 -9 9 0 5 -15
14 -32 20 -18 6 -28 7 -23 2z"/>
<path d="M1900 973 c-276 -160 -745 -430 -917 -527 -146 -82 -181 -106 -154
-106 11 0 255 -137 471 -265 86 -51 128 -71 110 -52 -14 15 -44 33 -155 92
-52 28 -146 86 -155 95 -3 3 -9 6 -15 7 -23 4 -215 122 -215 132 0 8 159 106
262 159 42 22 74 43 70 46 -3 3 0 6 6 6 6 0 78 39 159 86 279 162 300 174 311
174 6 0 17 6 24 14 19 18 193 116 207 116 6 0 11 4 11 8 0 4 34 27 75 50 l74
43 50 -25 c27 -14 52 -30 56 -36 3 -5 15 -10 26 -10 10 0 19 -3 19 -7 0 -9 59
-45 80 -49 8 -2 16 -8 18 -13 2 -6 10 -11 18 -11 8 0 17 -6 20 -13 3 -8 10
-14 17 -14 13 0 208 -111 217 -123 3 -3 14 -10 25 -14 11 -4 61 -32 111 -62
51 -30 96 -54 102 -54 6 0 12 -4 14 -8 2 -4 39 -27 83 -50 44 -24 71 -36 60
-27 -17 14 -389 233 -510 300 -22 13 -122 71 -223 129 -101 58 -184 106 -185
106 -1 0 -76 -44 -167 -97z"/>
</g>
</svg>
