<?xml version="1.0" standalone="no"?>
<!DOCTYPE svg PUBLIC "-//W3C//DTD SVG 20010904//EN"
 "http://www.w3.org/TR/2001/REC-SVG-20010904/DTD/svg10.dtd">
<svg version="1.0" xmlns="http://www.w3.org/2000/svg"
 width="225.000000pt" height="225.000000pt" viewBox="0 0 225.000000 225.000000"
 preserveAspectRatio="xMidYMid meet">
<metadata>
Created by potrace 1.10, written by Peter Selinger 2001-2011
</metadata>
<g transform="translate(0.000000,225.000000) scale(0.100000,-0.100000)"
fill="#000000" stroke="none">
<path d="M219 1954 c-9 -11 -10 -20 -2 -32 9 -15 39 -17 279 -17 l269 0 3 24
c2 13 -2 28 -10 32 -7 5 -128 9 -269 9 -222 0 -258 -2 -270 -16z"/>
<path d="M872 1954 c-22 -15 -22 -16 -22 -333 0 -295 1 -319 18 -334 16 -15
49 -17 259 -17 220 0 241 2 256 18 15 16 17 54 17 330 0 299 -1 313 -20 332
-19 19 -33 20 -253 20 -194 0 -236 -3 -255 -16z m468 -339 l0 -285 -215 0
-215 0 0 285 0 285 215 0 215 0 0 -285z"/>
<path d="M1515 1958 c-11 -6 -23 -16 -27 -22 -4 -6 -8 -101 -8 -211 0 -166 3
-204 16 -223 15 -22 18 -22 257 -22 133 0 247 4 253 8 29 19 34 56 34 242 0
189 0 191 -25 215 l-24 25 -228 0 c-151 -1 -235 -4 -248 -12z m455 -235 l0
-178 -211 1 -211 2 -2 176 -1 176 213 0 212 0 0 -177z"/>
<path d="M219 1814 c-9 -11 -10 -20 -2 -32 9 -15 39 -17 279 -17 251 0 269 1
272 18 9 45 -5 47 -278 47 -223 0 -259 -2 -271 -16z"/>
<path d="M219 1674 c-9 -11 -10 -20 -2 -32 9 -15 39 -17 279 -17 251 0 269 1
272 18 9 45 -5 47 -278 47 -223 0 -259 -2 -271 -16z"/>
<path d="M263 1472 c-48 -7 -53 -31 -53 -244 0 -185 1 -199 20 -218 19 -19 33
-20 263 -20 224 0 245 2 260 18 15 16 17 47 17 224 0 189 -2 206 -19 222 -17
15 -47 18 -243 19 -122 1 -233 1 -245 -1z m442 -242 l0 -180 -212 0 -213 0 0
180 0 180 213 0 212 0 0 -180z"/>
<path d="M1484 1315 c-4 -8 -4 -22 0 -30 5 -13 45 -15 275 -15 260 0 270 1
276 20 3 11 3 24 0 30 -4 6 -105 10 -276 10 -230 0 -270 -2 -275 -15z"/>
<path d="M867 1172 c-24 -27 -25 -352 -1 -376 8 -9 20 -16 25 -16 5 0 110 -1
234 -1 124 0 229 1 234 1 5 0 17 7 25 16 13 13 16 44 16 188 0 155 -2 175 -18
189 -16 15 -49 17 -259 17 -220 0 -241 -2 -256 -18z m473 -187 l0 -145 -215 0
-215 0 0 145 0 145 215 0 215 0 0 -145z"/>
<path d="M1484 1175 c-4 -8 -4 -22 0 -30 5 -13 42 -15 278 -13 l273 3 0 25 0
25 -273 3 c-236 2 -273 0 -278 -13z"/>
<path d="M1484 1035 c-4 -8 -4 -22 0 -30 5 -13 45 -15 275 -15 171 0 272 4
276 10 3 6 3 19 0 30 -6 19 -16 20 -276 20 -230 0 -270 -2 -275 -15z"/>
<path d="M234 896 c-18 -14 -19 -31 -22 -290 l-3 -276 25 -25 25 -25 229 0
c217 0 231 1 256 21 l26 20 0 273 c0 230 -2 275 -16 294 -15 22 -18 22 -258
22 -193 0 -246 -3 -262 -14z m469 -299 l2 -247 -212 0 -213 0 0 250 0 250 211
-2 210 -3 2 -248z"/>
<path d="M1502 824 c-22 -15 -22 -18 -22 -257 0 -133 4 -247 8 -253 19 -30 55
-34 277 -34 l226 0 24 25 25 24 0 226 c0 222 -4 258 -34 277 -6 4 -117 8 -246
8 -197 0 -239 -3 -258 -16z m468 -259 l0 -215 -212 0 -213 0 2 212 c1 117 2
214 2 216 1 1 96 2 211 2 l210 0 0 -215z"/>
<path d="M852 618 c-16 -16 -15 -23 4 -42 23 -24 515 -24 538 0 19 19 20 26 4
42 -17 17 -529 17 -546 0z"/>
<path d="M852 478 c-16 -16 -15 -23 4 -42 23 -24 515 -24 538 0 12 12 13 20 6
35 -10 18 -24 19 -273 19 -191 0 -266 -3 -275 -12z"/>
<path d="M851 336 c-9 -11 -10 -20 -1 -35 10 -20 18 -21 275 -21 240 0 265 2
274 17 6 11 6 24 0 35 -9 17 -31 18 -273 18 -217 0 -266 -3 -275 -14z"/>
</g>
</svg>
