<?xml version="1.0" standalone="no"?>
<!DOCTYPE svg PUBLIC "-//W3C//DTD SVG 20010904//EN"
 "http://www.w3.org/TR/2001/REC-SVG-20010904/DTD/svg10.dtd">
<svg version="1.0" xmlns="http://www.w3.org/2000/svg"
 width="194.000000pt" height="259.000000pt" viewBox="0 0 194.000000 259.000000"
 preserveAspectRatio="xMidYMid meet">
<metadata>
Created by potrace 1.10, written by Peter Selinger 2001-2011
</metadata>
<g transform="translate(0.000000,259.000000) scale(0.100000,-0.100000)"
fill="#000000" stroke="none">
<path d="M294 2109 c2 -19 -1 -32 -10 -36 -12 -4 -14 -74 -14 -404 l0 -399 60
0 60 0 0 214 c0 173 3 221 16 252 10 25 12 40 6 42 -6 2 -9 11 -6 20 4 13 3
13 -6 -2 -14 -21 -29 -230 -30 -405 0 -113 0 -113 -22 -107 -13 3 -30 6 -38 6
-13 0 -13 1 0 10 13 8 13 10 -2 10 -16 0 -18 23 -18 316 0 173 -3 320 -6 326
-5 7 -2 8 6 3 9 -5 10 -2 5 14 -3 11 -3 30 0 41 6 19 15 20 175 20 104 0 171
4 175 10 4 6 11 8 16 4 5 -3 140 -5 299 -5 264 0 291 -1 299 -17 4 -9 11 -63
13 -119 l5 -103 -257 0 c-219 0 -259 -2 -270 -15 -7 -9 -10 -19 -6 -23 4 -4
13 1 21 11 12 16 32 17 266 14 230 -3 327 -12 347 -31 3 -4 8 -50 9 -103 2
-88 7 -113 17 -102 2 2 6 57 8 122 l4 117 -55 1 c-31 1 -59 1 -63 0 -5 0 -8
60 -8 134 l0 135 -319 0 -319 0 -6 34 c-8 44 -17 46 -203 46 l-153 0 4 -31z
m272 0 c4 -8 9 -8 17 0 15 15 47 -16 47 -46 l0 -23 -172 0 c-138 1 -170 3
-158 13 8 7 15 18 16 25 1 6 2 16 3 22 0 5 38 11 84 13 45 1 99 4 119 5 20 1
40 -3 44 -9z"/>
<path d="M523 1863 c37 -2 97 -2 135 0 37 2 6 3 -68 3 -74 0 -105 -1 -67 -3z"/>
<path d="M595 1769 c65 -5 122 -6 126 -1 4 4 -49 8 -119 9 l-127 1 120 -9z"/>
<path d="M527 1603 c-4 -3 -7 -22 -6 -42 l1 -36 10 37 10 38 171 3 172 3 -176
2 c-97 1 -179 -1 -182 -5z"/>
<path d="M883 1520 c-17 -20 -27 -21 -195 -19 -156 1 -178 4 -179 18 -1 9 -5
-2 -10 -24 -4 -22 -8 -138 -8 -257 -1 -205 -2 -218 -19 -218 -11 0 -29 8 -40
19 -20 16 -22 29 -22 114 0 53 -4 99 -10 102 -6 4 -10 -39 -10 -122 l0 -129
60 -1 60 -2 0 227 c1 173 4 231 14 245 12 15 33 17 183 17 141 0 173 3 183 15
11 13 50 15 266 15 140 -1 254 2 254 5 0 4 -115 8 -255 11 -248 4 -255 4 -272
-16z"/>
<path d="M1450 1529 c0 -5 -4 -7 -10 -4 -5 3 -10 1 -10 -4 0 -6 8 -11 18 -11
14 0 15 -2 2 -10 -12 -7 -8 -10 14 -10 43 0 55 -24 56 -112 0 -45 4 -78 10
-78 6 0 10 43 10 110 l0 110 -35 0 c-19 0 -35 5 -35 10 0 6 -4 10 -10 10 -5 0
-10 -5 -10 -11z"/>
<path d="M653 1343 c-7 -2 -13 -18 -13 -34 0 -16 -4 -29 -8 -29 -19 0 -32
-129 -35 -333 -2 -202 -1 -217 16 -217 16 0 17 17 16 261 0 175 3 265 10 272
6 6 11 24 11 39 0 15 1 29 3 30 1 1 81 5 177 8 l175 6 -170 1 c-93 1 -176 -1
-182 -4z"/>
<path d="M1009 1335 c-4 -3 -3 -20 0 -38 l7 -32 275 -5 c206 -4 280 -8 292
-18 11 -10 17 -10 22 -1 6 8 11 6 18 -7 13 -23 10 -705 -3 -737 -8 -21 -9 -21
-10 -2 0 13 -3 16 -8 8 -6 -9 -121 -12 -466 -14 -510 -1 -482 -5 -496 68 -7
33 -8 29 -9 -29 l-1 -68 515 0 515 0 0 400 0 400 -45 0 c-36 0 -45 3 -45 18 0
11 -3 13 -8 6 -4 -7 -31 -11 -67 -10 -33 1 -154 3 -269 4 -162 2 -207 5 -203
15 5 15 -6 50 -14 42z"/>
<path d="M733 1233 c48 -2 125 -2 170 0 45 1 6 3 -88 3 -93 0 -130 -2 -82 -3z"/>
<path d="M515 990 c-3 -5 -5 -66 -4 -135 l1 -125 34 0 c19 0 34 5 34 11 0 5
-4 7 -10 4 -5 -3 -12 6 -16 20 -3 13 -10 23 -14 20 -13 -8 -17 198 -5 207 6 5
6 8 -2 8 -6 0 -15 -4 -18 -10z"/>
<path d="M591 562 c-1 -13 -5 -20 -11 -17 -5 3 -10 -3 -10 -14 0 -14 6 -21 20
-21 21 0 23 9 10 50 -8 25 -8 25 -9 2z"/>
</g>
</svg>
