<?xml version="1.0" standalone="no"?>
<!DOCTYPE svg PUBLIC "-//W3C//DTD SVG 20010904//EN"
 "http://www.w3.org/TR/2001/REC-SVG-20010904/DTD/svg10.dtd">
<svg version="1.0" xmlns="http://www.w3.org/2000/svg"
 width="225.000000pt" height="225.000000pt" viewBox="0 0 225.000000 225.000000"
 preserveAspectRatio="xMidYMid meet">
<metadata>
Created by potrace 1.10, written by Peter Selinger 2001-2011
</metadata>
<g transform="translate(0.000000,225.000000) scale(0.100000,-0.100000)"
fill="#000000" stroke="none">
<path d="M835 1853 c-142 -19 -282 -99 -365 -209 -175 -232 -147 -548 64 -741
163 -149 403 -186 602 -92 l61 28 184 -185 c101 -102 196 -192 211 -200 58
-30 147 -3 168 52 13 34 13 80 -1 107 -6 12 -96 108 -200 212 l-188 190 28 60
c36 75 51 145 51 237 0 148 -55 276 -164 383 -93 91 -180 135 -306 155 -65 10
-89 10 -145 3z m210 -57 c11 -2 20 -5 20 -6 0 -1 7 -3 15 -5 8 -1 43 -19 78
-40 71 -41 137 -103 172 -161 13 -21 28 -42 33 -45 5 -3 8 -10 8 -15 0 -5 9
-40 21 -79 31 -104 21 -243 -24 -342 -28 -61 -33 -106 -14 -122 9 -7 16 -20
16 -27 0 -8 7 -14 16 -14 8 0 12 -5 9 -10 -3 -5 -2 -10 3 -10 13 0 97 -81 95
-91 -2 -5 2 -9 7 -9 12 0 213 -200 202 -200 -4 0 -1 -4 6 -9 7 -4 16 -23 18
-41 11 -65 -83 -118 -124 -70 -10 11 -12 12 -6 0 4 -8 -81 75 -189 183 -108
108 -202 197 -209 197 -9 0 -9 -3 2 -10 11 -8 7 -9 -14 -4 -18 4 -31 2 -36 -5
-4 -7 -13 -13 -21 -15 -8 -1 -36 -10 -64 -19 -27 -9 -83 -20 -123 -25 -62 -7
-86 -5 -155 13 -94 26 -132 44 -203 97 -45 33 -134 143 -141 173 -1 5 -12 37
-24 70 -31 86 -32 189 -2 293 13 46 30 91 39 99 8 9 12 23 9 31 -3 9 -3 13 1
10 4 -4 20 11 35 32 16 22 34 40 39 40 6 0 10 6 10 13 0 16 53 57 74 57 8 0
17 4 21 9 9 16 134 73 144 67 5 -4 12 -3 14 1 5 8 204 -1 242 -11z"/>
<path d="M820 1749 c-19 -5 -51 -13 -70 -19 -38 -10 -124 -63 -155 -95 -43
-44 -86 -105 -81 -114 4 -5 1 -13 -5 -17 -8 -5 -9 -3 -4 6 5 9 4 11 -3 6 -7
-4 -12 -18 -12 -31 0 -13 -4 -26 -9 -29 -5 -4 -15 -37 -22 -76 -14 -77 0 -201
26 -230 14 -15 15 -19 15 -46 0 -9 5 -12 12 -8 7 4 8 3 4 -4 -10 -16 70 -119
105 -134 16 -7 29 -16 29 -19 0 -3 30 -21 67 -40 65 -33 71 -34 182 -34 87 0
125 4 151 16 19 9 43 20 53 23 10 3 16 10 13 15 -3 5 2 7 12 4 12 -3 38 17 82
61 36 35 65 68 64 73 0 4 6 14 13 22 8 7 17 26 20 42 3 16 9 26 14 24 14 -9
24 66 23 176 0 96 -3 111 -31 170 -44 92 -116 167 -207 213 -43 22 -80 35 -87
30 -8 -4 -10 -3 -5 4 5 8 -1 12 -16 13 -13 0 -50 2 -83 4 -33 2 -76 -1 -95 -6z
m223 -57 c116 -42 217 -148 252 -265 19 -64 19 -178 0 -239 -40 -132 -154
-242 -287 -278 -80 -21 -202 -9 -280 27 -175 82 -273 287 -224 469 63 237 309
368 539 286z"/>
<path d="M813 1634 c-29 -7 -45 -28 -41 -56 3 -22 5 -23 94 -19 77 3 99 0 140
-18 27 -12 58 -31 70 -42 29 -27 68 -22 72 9 5 32 -26 62 -95 97 -45 24 -70
29 -137 31 -44 1 -91 0 -103 -2z"/>
</g>
</svg>
